<?xml version="1.0" ?><svg data-name="Layer 1" id="Layer_1" viewBox="0 0 64 64" xmlns="http://www.w3.org/2000/svg"><defs><style>.cls-1{fill:#6e9eff;}.cls-2{fill:#002849;}</style></defs><title/><path class="cls-1" d="M53.4,26.31a2.58,2.58,0,0,0,0-.31,7.11,7.11,0,0,0-7.94-7.06h0a7,7,0,0,0-.75.13l-.11,0c-.23.06-.45.12-.66.2l-.08,0a7.06,7.06,0,0,0-.69.3,14.35,14.35,0,0,0-14-11.32c-.49,0-1,0-1.44.08l-.2,0c-.39,0-.78.1-1.16.18l-.38.09c-.31.07-.63.15-.93.24l-.45.15c-.28.09-.55.19-.82.3l-.47.21-.74.35L22,10.2l-.67.41-.47.31-.61.46-.44.35c-.19.16-.38.34-.56.51l-.41.39c-.18.19-.36.39-.53.58s-.24.26-.35.4-.38.5-.57.76l-.22.3q-.37.54-.68,1.12c-.07.12-.12.25-.19.37s-.28.55-.4.83-.12.3-.18.46-.21.54-.3.81-.09.32-.14.48-.16.56-.22.85-.06.32-.09.48-.08.35-.1.53h-.53a12.39,12.39,0,0,0,0,24.78H52.44a9.56,9.56,0,0,0,1-19.08Z"/><path class="cls-2" d="M20,49.72l-1.53,5.7a1,1,0,1,0,1.93.52l1.53-5.7A1,1,0,1,0,20,49.72Z"/><path class="cls-2" d="M31.8,49.72l-1.53,5.7a1,1,0,1,0,1.93.52l1.53-5.7a1,1,0,0,0-1.93-.52Z"/><path class="cls-2" d="M43.63,49.72l-1.53,5.7a1,1,0,1,0,1.93.52l1.53-5.7a1,1,0,0,0-1.93-.52Z"/><path class="cls-2" d="M54.39,25.44a8.12,8.12,0,0,0-8.06-7.54h0a8.1,8.1,0,0,0-1.19.1L45,18a8.06,8.06,0,0,0-1.16.27,15.42,15.42,0,0,0-14.7-11c-.5,0-1,0-1.49.08l-.44.06c-.32,0-.64.08-.95.15l-.68.15-.63.16-.82.26-.42.15c-.31.12-.62.25-.92.38l-.2.1a15.41,15.41,0,0,0-4.93,3.71l-.11.12c-.22.25-.43.52-.63.79l-.24.33q-.25.35-.49.72l-.3.49c-.13.22-.25.43-.36.66s-.22.44-.32.67-.17.37-.25.57-.23.61-.34.93c0,.13-.09.26-.13.39-.14.46-.27.94-.37,1.42a13.34,13.34,0,0,0-8.69,3.48,1,1,0,1,0,1.35,1.48,11.34,11.34,0,0,1,7.09-2.93c0,.35-.05.69-.05,1s0,.77,0,1.15a1,1,0,0,0,1,.93h.08a1,1,0,0,0,.92-1.07q0-.5,0-1A13.33,13.33,0,0,1,16,20.24c0-.14,0-.27.08-.41s.14-.56.22-.84.08-.28.12-.41.18-.51.28-.76.11-.3.17-.44.2-.42.3-.62.17-.35.26-.52L17.6,16a13.51,13.51,0,0,1,3.68-4.07l.05,0c.29-.21.59-.4.89-.59l.13-.08c.29-.17.58-.33.88-.48l.22-.11q.41-.2.84-.36l.35-.13.76-.25.54-.14.63-.15c.29-.06.58-.1.87-.13l.36-.05c.43,0,.87-.07,1.32-.07h0A13.4,13.4,0,0,1,42,19.15a8.1,8.1,0,0,0-2.64,11,1,1,0,0,0,1.72-1,6.1,6.1,0,0,1,2.53-8.59,5.82,5.82,0,0,1,.6-.26l.08,0a6,6,0,0,1,.59-.17l.07,0A6.1,6.1,0,0,1,52.41,26a1.53,1.53,0,0,1,0,.18,1,1,0,0,0,.89,1.12,8.56,8.56,0,0,1-.86,17.08H48a1,1,0,0,0,0,2h4.44a10.56,10.56,0,0,0,2-20.94Z"/><path class="cls-2" d="M14.39,46.38H43.13a1,1,0,0,0,0-2H14.39a11.39,11.39,0,0,1-9.89-17,1,1,0,0,0-1.74-1,13.39,13.39,0,0,0,11.63,20Z"/><path class="cls-2" d="M16.57,30.64a1,1,0,0,0,.87-1.49q-.27-.48-.5-1a1,1,0,1,0-1.82.82q.26.58.57,1.14A1,1,0,0,0,16.57,30.64Z"/></svg>