<?xml version="1.0" ?><svg data-name="Layer 1" id="Layer_1" viewBox="0 0 64 64" xmlns="http://www.w3.org/2000/svg"><defs><style>.cls-1{fill:#6e9eff;}.cls-2{fill:#002849;}</style></defs><title/><path class="cls-1" d="M53.4,27.31a2.58,2.58,0,0,0,0-.31,7.11,7.11,0,0,0-7.94-7.06h0a7,7,0,0,0-.75.13l-.11,0c-.23.06-.45.12-.66.2l-.08,0a7.06,7.06,0,0,0-.69.3,14.35,14.35,0,0,0-14-11.32c-.49,0-1,0-1.44.08l-.2,0c-.39,0-.78.1-1.16.18l-.38.09c-.31.07-.63.15-.93.24l-.45.15c-.28.09-.55.19-.82.3l-.47.21-.74.35L22,11.2l-.67.41-.47.31-.61.46-.44.35c-.19.16-.38.34-.56.51l-.41.39c-.18.19-.36.39-.53.58s-.24.26-.35.4-.38.5-.57.76l-.22.3q-.37.54-.68,1.12c-.07.12-.12.25-.19.37s-.28.55-.4.83-.12.3-.18.46-.21.54-.3.81-.09.32-.14.48-.16.56-.22.85-.06.32-.09.48-.08.35-.1.53h-.53a12.39,12.39,0,0,0,0,24.78H52.44a9.56,9.56,0,0,0,1-19.08Z"/><path class="cls-2" d="M52.44,47.38a10.47,10.47,0,0,0,6.32-2.1,1,1,0,1,0-1.2-1.6,8.49,8.49,0,0,1-5.12,1.7H39.19a1,1,0,0,0,0,2Z"/><path class="cls-2" d="M54.39,26.44a8.12,8.12,0,0,0-8.06-7.54h0a8.09,8.09,0,0,0-1.19.1L45,19a8,8,0,0,0-1.16.27,15.42,15.42,0,0,0-14.7-11h0a15.34,15.34,0,0,0-12.72,6.79A1,1,0,1,0,18,16.23a13.34,13.34,0,0,1,11.08-5.91h0A13.4,13.4,0,0,1,42,20.15a8.1,8.1,0,0,0-2.64,11,1,1,0,0,0,1.72-1,6.1,6.1,0,0,1,2.53-8.59h0a5.8,5.8,0,0,1,.6-.26l.08,0a6,6,0,0,1,.58-.17l.07,0A6.1,6.1,0,0,1,52.41,27a1.52,1.52,0,0,1,0,.19,1,1,0,0,0,.89,1.11,8.56,8.56,0,0,1,7.06,11.78,1,1,0,1,0,1.85.76,10.57,10.57,0,0,0-7.82-14.4Z"/><path class="cls-2" d="M14.39,47.38H28.08a1,1,0,1,0,0-2H14.39a11.38,11.38,0,0,1-.58-22.75q0,.52,0,1t0,1.15a1,1,0,0,0,1,.93h.08a1,1,0,0,0,.92-1.07q0-.5,0-1A13.37,13.37,0,0,1,16.27,20a1,1,0,1,0-1.92-.55c-.11.38-.2.76-.27,1.14a13.39,13.39,0,0,0,.31,26.77Z"/><path class="cls-2" d="M15.62,28.66a1,1,0,0,0-.5,1.32q.26.58.57,1.14a1,1,0,0,0,1.75-1q-.27-.48-.5-1A1,1,0,0,0,15.62,28.66Z"/><path class="cls-2" d="M31.86,27.42a1,1,0,0,0-1.22.71L27.11,41.27a1,1,0,0,0,1,1.26h6.54L31.43,54.42a1,1,0,1,0,1.93.52l3.52-13.15a1,1,0,0,0-1-1.26H29.38l3.19-11.89A1,1,0,0,0,31.86,27.42Z"/></svg>