<?xml version="1.0" ?><svg data-name="Layer 1" id="Layer_1" viewBox="0 0 64 64" xmlns="http://www.w3.org/2000/svg"><defs><style>.cls-1{fill:#6e9eff;}.cls-2{fill:#fedb41;}.cls-3{fill:#002849;}</style></defs><title/><path class="cls-1" d="M54.68,31.33a2.47,2.47,0,0,0,0-.25,6,6,0,0,0-6-6,5,5,0,0,0-.62,0,3.93,3.93,0,0,0-.44.06l-.08,0-.25.06a4.84,4.84,0,0,0-.8.25.72.72,0,0,0-.19.08,2.1,2.1,0,0,0-.31.14,12.16,12.16,0,0,0-11.88-9.6c-.39,0-.77,0-1.15.05l-.38.05-.31,0-.53.08-.41.09-.45.11a12.57,12.57,0,0,0-1.5.53l-.54.25a11,11,0,0,0-1,.56l-.24.15-.23.14h0l0,0c-.17.1-.32.22-.48.34l-.31.24-.41.34-.27.25c-.12.1-.23.21-.34.32l-.4.42c-.14.14-.26.29-.38.44s-.25.3-.36.46a5.33,5.33,0,0,0-.31.45,10.85,10.85,0,0,0-.9,1.55c-.08.18-.17.36-.25.54s-.19.44-.26.67-.1.3-.14.44-.11.37-.16.56-.1.41-.14.61-.09.47-.13.7h-.44a10.5,10.5,0,0,0-9.76,6.61,10.28,10.28,0,0,0-.76,3.9A10.51,10.51,0,0,0,21.59,47.52H53.86a8.11,8.11,0,0,0,.81-16.19Z"/><path class="cls-2" d="M11.83,33.11a10.5,10.5,0,0,1,9.76-6.61H22c0-.24.08-.48.13-.7s.09-.42.14-.61.1-.37.16-.56.09-.3.14-.44.17-.45.26-.67.16-.36.25-.54a10.85,10.85,0,0,1,.9-1.55,5.33,5.33,0,0,1,.31-.45c.12-.16.24-.31.36-.46s.25-.3.38-.44l.4-.42c.11-.11.22-.22.34-.32l.27-.25.41-.34.31-.24c.16-.12.31-.24.48-.34l0,0h0A12.79,12.79,0,0,0,15.92,7.9c.26.21.51.44.75.68a9.89,9.89,0,0,1-14,14A9.28,9.28,0,0,1,2,21.81a12.79,12.79,0,0,0,9.81,11.3Z"/><path class="cls-3" d="M44.3,46.52H42.63a1,1,0,0,0,0,2H44.3a1,1,0,0,0,0-2Z"/><path class="cls-3" d="M53.87,46.52H49.13a1,1,0,0,0,0,2h4.74a9.11,9.11,0,0,0,1.8-18,7,7,0,0,0-7-6.42,5.49,5.49,0,0,0-.68,0,4.88,4.88,0,0,0-.56.07h-.11l-.25.06-.41.1a13.19,13.19,0,0,0-2.42-4.47,1,1,0,0,0-1.54,1.27,11.16,11.16,0,0,1,2.11,4.07,7,7,0,0,0-3.18,5.86,7.11,7.11,0,0,0,1,3.6,1,1,0,0,0,1.72-1,5,5,0,0,1-.71-2.59,5,5,0,0,1,2.79-4.49l0,0h0l.19-.09.09,0h0l.08,0a4.47,4.47,0,0,1,.71-.22l.16,0h.07l.37,0a4.13,4.13,0,0,1,.5,0,5,5,0,0,1,5,5c0,.05,0,.11,0,.15a1,1,0,0,0,.9,1.1,7.11,7.11,0,0,1-.72,14.19Z"/><path class="cls-3" d="M22.57,32.35a1,1,0,0,0-.5,1.32q.23.5.49,1a1,1,0,1,0,1.75-1q-.23-.4-.42-.83A1,1,0,0,0,22.57,32.35Z"/><path class="cls-3" d="M10.54,33.78A11.37,11.37,0,0,0,10.08,37,11.52,11.52,0,0,0,21.59,48.52h5.72a1,1,0,0,0,0-2H21.59A9.52,9.52,0,0,1,12.08,37a9.29,9.29,0,0,1,.68-3.53,9.42,9.42,0,0,1,8.17-5.93c0,.24,0,.47,0,.71s0,.67,0,1a1,1,0,0,0,1,.92H22a1,1,0,0,0,.91-1.08c0-.28,0-.56,0-.83A12.21,12.21,0,0,1,23,26.65c0-.21.07-.42.11-.64s.09-.38.13-.56.09-.34.15-.53.08-.26.13-.41.15-.4.24-.61.15-.33.23-.5a10.17,10.17,0,0,1,.85-1.46,4.55,4.55,0,0,1,.26-.37c.1-.14.2-.27.35-.44s.21-.25.34-.39l.37-.4c.09-.09.17-.17.32-.31l.22-.2.39-.33.26-.2.08-.06c.11-.08.21-.16.32-.22l.06,0,.07-.05.09-.06.08,0,.21-.13a9.94,9.94,0,0,1,1-.52l.48-.22a11.63,11.63,0,0,1,1.38-.48l.42-.1.36-.08.51-.08.22,0,.12,0,.17,0H33a11.36,11.36,0,0,1,7.07,1.71,1,1,0,0,0,1.08-1.68,13.11,13.11,0,0,0-7.08-2.07c-.42,0-.83,0-1.29.06h-.11l-.28,0-.32,0-.63.1-.38.09-.5.12a13.61,13.61,0,0,0-1.61.56l-.6.27-.43.22a13.67,13.67,0,0,0-3.43-5.71,13.83,13.83,0,0,0-8.5-4,1,1,0,0,0-1,.62,1,1,0,0,0,.3,1.15c.24.19.46.4.68.61a8.88,8.88,0,0,1-4.48,15,1,1,0,1,0,.4,2A10.88,10.88,0,0,0,18.74,9.54a11.83,11.83,0,0,1,7.44,8.18l-.33.25-.41.34-.29.26c-.13.11-.26.24-.4.38l-.42.45c-.16.17-.3.33-.41.47s-.28.34-.41.51a5.74,5.74,0,0,0-.34.49,11.78,11.78,0,0,0-1,1.69c-.09.2-.19.39-.26.58s-.21.49-.28.72-.12.34-.16.48-.12.4-.18.61-.09.38-.14.56a11.66,11.66,0,0,0-1.5.15l-.12,0a11.5,11.5,0,0,0-1.37.33l-.17,0a11.43,11.43,0,0,0-1.27.5l-.18.08a11.4,11.4,0,0,0-1.18.65l-.17.11a11.38,11.38,0,0,0-1.09.81l-.13.12a11.37,11.37,0,0,0-1,1l-.08.1a11.41,11.41,0,0,0-.89,1.15l0,0a11.53,11.53,0,0,0-.77,1.33h0a11.8,11.8,0,0,1-7.6-7.28A10.84,10.84,0,0,0,7.36,26.2a1,1,0,1,0,.43-2,8.85,8.85,0,0,1-4.37-2.38,8.27,8.27,0,0,1-.6-.67A1,1,0,0,0,1,21.9a13.78,13.78,0,0,0,9.51,11.88Z"/><path class="cls-3" d="M34.14,57.06a1,1,0,0,0,1.22-.71l3.52-13.15a1,1,0,0,0-1-1.26H31.38l3.18-11.89a1,1,0,1,0-1.93-.52L29.11,42.69a1,1,0,0,0,1,1.26h6.54L33.43,55.84A1,1,0,0,0,34.14,57.06Z"/></svg>