<?xml version="1.0" ?><svg data-name="Layer 1" id="Layer_1" viewBox="0 0 64 64" xmlns="http://www.w3.org/2000/svg"><defs><style>.cls-1{fill:#677a91;}.cls-2{fill:#6e9eff;}.cls-3{fill:#fedb41;}.cls-4{fill:#002849;}</style></defs><title/><path class="cls-1" d="M54.68,26a2.47,2.47,0,0,0,0-.25,6,6,0,0,0-6-6,5.06,5.06,0,0,0-.62,0,4,4,0,0,0-.44.06l-.08,0-.25.06a4.84,4.84,0,0,0-.8.25.72.72,0,0,0-.19.08,2.1,2.1,0,0,0-.31.14,12.16,12.16,0,0,0-11.88-9.6c-.39,0-.77,0-1.15.05l-.38.05-.31,0-.53.08L31.3,11l-.45.11a12.55,12.55,0,0,0-1.5.53l-.54.25a11,11,0,0,0-1,.56l-.24.15-.23.15,0,0c-.17.1-.32.22-.48.34l-.31.24-.41.34-.27.25c-.12.1-.23.21-.34.32l-.4.42c-.14.14-.26.29-.38.44s-.25.3-.36.46a5.32,5.32,0,0,0-.31.45,10.86,10.86,0,0,0-.9,1.55c-.08.18-.17.36-.25.54s-.19.44-.26.67-.1.3-.14.44-.11.37-.16.56-.1.41-.14.61-.09.47-.13.7h-.44a10.5,10.5,0,0,0-9.76,6.61,10.28,10.28,0,0,0-.76,3.9A10.51,10.51,0,0,0,21.59,42.15H53.86A8.11,8.11,0,0,0,54.68,26Z"/><polygon class="cls-2" points="56.58 49.76 56.58 49.76 56.58 49.76 56.58 49.76"/><rect class="cls-2" x="20.21" y="49.76"/><rect class="cls-2" x="38.4" y="49.76"/><path class="cls-2" d="M27.3,12.78l.23-.15-.23.14Z"/><path class="cls-3" d="M11.83,27.74a10.5,10.5,0,0,1,9.76-6.61H22c0-.24.08-.48.13-.7s.09-.42.14-.61.1-.37.16-.56.09-.3.14-.44.17-.45.26-.67.16-.36.25-.54a10.86,10.86,0,0,1,.9-1.55,5.32,5.32,0,0,1,.31-.45c.12-.16.24-.31.36-.46s.25-.3.38-.44l.4-.42c.11-.11.22-.22.34-.32l.27-.25.41-.34.31-.24c.16-.12.31-.24.48-.34l0,0h0A12.79,12.79,0,0,0,15.92,2.54c.26.21.51.44.75.68a9.89,9.89,0,1,1-14,14A9.26,9.26,0,0,1,2,16.44a12.79,12.79,0,0,0,9.81,11.3Z"/><path class="cls-4" d="M61.86,38.41a9.12,9.12,0,0,0-6.2-13.31,7,7,0,0,0-7-6.42,5.49,5.49,0,0,0-.68,0,5,5,0,0,0-.56.07h-.11l-.25.06-.41.1a13.09,13.09,0,0,0-3.43-5.57,1,1,0,1,0-1.39,1.44,11.1,11.1,0,0,1,3,5,7,7,0,0,0-3.19,5.87,7.11,7.11,0,0,0,1,3.6,1,1,0,0,0,1.72-1,5,5,0,0,1-.71-2.59,5,5,0,0,1,2.79-4.49l0,0h0l.19-.09.09,0h0l.08,0a4.47,4.47,0,0,1,.72-.22l.16,0h.08l.37,0a4.13,4.13,0,0,1,.5,0,5,5,0,0,1,5,5c0,.05,0,.11,0,.15a1,1,0,0,0,.9,1.1,7.12,7.12,0,0,1,5.53,10.49,1,1,0,1,0,1.75,1Z"/><path class="cls-4" d="M56,42.9A1,1,0,0,0,55.54,41a7.12,7.12,0,0,1-1.68.2H21.59a9.52,9.52,0,0,1-9.51-9.51,9.29,9.29,0,0,1,.68-3.53,9.43,9.43,0,0,1,8.17-5.93c0,.24,0,.47,0,.71s0,.67,0,1a1,1,0,0,0,1,.92H22a1,1,0,0,0,.91-1.08c0-.28,0-.56,0-.83A12.18,12.18,0,0,1,23,21.28c0-.21.07-.42.11-.64s.09-.38.13-.55.09-.35.16-.54.08-.26.13-.41.15-.4.24-.61.15-.33.23-.5a10.13,10.13,0,0,1,.85-1.46,4.4,4.4,0,0,1,.26-.37c.1-.14.2-.27.35-.44s.21-.25.34-.39l.38-.4c.09-.09.17-.17.32-.31l.22-.2.39-.33.26-.2.09-.07c.1-.08.2-.15.31-.22l0,0,.08-.06.1-.06.09-.06.19-.12a9.94,9.94,0,0,1,1-.52l.48-.22a11.63,11.63,0,0,1,1.38-.48l.42-.1.36-.08.5-.08.22,0,.12,0,.17,0H33a11.4,11.4,0,0,1,4.43.47,1,1,0,1,0,.6-1.91,13.12,13.12,0,0,0-4-.61c-.42,0-.83,0-1.29.06h-.11l-.28,0-.32,0-.63.1-.38.09-.5.12a13.61,13.61,0,0,0-1.61.56l-.6.27-.43.22a13.67,13.67,0,0,0-3.43-5.71,13.82,13.82,0,0,0-8.5-4,1,1,0,0,0-1,.62,1,1,0,0,0,.3,1.15c.24.19.46.4.68.61a8.88,8.88,0,0,1-5.56,15.13,1,1,0,1,0,.16,2A10.87,10.87,0,0,0,18.74,4.17a11.83,11.83,0,0,1,7.44,8.18l-.33.25-.41.34-.29.26c-.13.11-.26.24-.4.38l-.42.45c-.16.17-.3.33-.4.46s-.28.34-.41.51a5.45,5.45,0,0,0-.34.49,11.7,11.7,0,0,0-1,1.69c-.09.2-.19.39-.26.58s-.21.49-.28.72-.12.34-.16.47-.12.4-.18.61-.09.38-.14.56a11.66,11.66,0,0,0-1.5.15l-.12,0a11.5,11.5,0,0,0-1.37.33l-.17,0a11.43,11.43,0,0,0-1.27.5l-.18.08a11.4,11.4,0,0,0-1.18.65l-.17.11a11.38,11.38,0,0,0-1.09.81L14,23a11.37,11.37,0,0,0-1,1L13,24a11.41,11.41,0,0,0-.89,1.15l0,0a11.53,11.53,0,0,0-.77,1.33h0a11.8,11.8,0,0,1-7.6-7.28,10.83,10.83,0,0,0,1.92,1,1,1,0,0,0,.75-1.85A8.8,8.8,0,0,1,3.42,16.5a8.27,8.27,0,0,1-.6-.67,1,1,0,0,0-1.79.7,13.78,13.78,0,0,0,9.51,11.88,11.36,11.36,0,0,0-.46,3.23A11.52,11.52,0,0,0,21.59,43.15H53.87A9.15,9.15,0,0,0,56,42.9Z"/><path class="cls-4" d="M22.57,27a1,1,0,0,0-.5,1.32q.23.5.49,1a1,1,0,1,0,1.75-1q-.23-.4-.42-.83A1,1,0,0,0,22.57,27Z"/><path class="cls-4" d="M24.4,49.76a1,1,0,0,0-1-1h-.78l.55-.55a1,1,0,0,0-1.41-1.41l-.55.55v-.78a1,1,0,0,0-2,0v.78l-.55-.55a1,1,0,0,0-1.41,1.41l.55.55H17a1,1,0,1,0,0,2h.78l-.55.55a1,1,0,1,0,1.41,1.41l.55-.55V53a1,1,0,0,0,2,0v-.78l.55.55a1,1,0,0,0,1.41-1.41l-.55-.55h.78A1,1,0,0,0,24.4,49.76Z"/><path class="cls-4" d="M42.59,49.76a1,1,0,0,0-1-1h-.78l.55-.55a1,1,0,0,0-1.41-1.41l-.55.55v-.78a1,1,0,0,0-2,0v.78l-.55-.55a1,1,0,0,0-1.41,1.41l.55.55h-.78a1,1,0,0,0,0,2H36l-.55.55a1,1,0,1,0,1.41,1.41l.55-.55V53a1,1,0,0,0,2,0v-.78l.55.55a1,1,0,0,0,1.41-1.41l-.55-.55h.78A1,1,0,0,0,42.59,49.76Z"/><path class="cls-4" d="M60.77,49.76a1,1,0,0,0-1-1H59l.55-.55a1,1,0,0,0-1.41-1.41l-.55.55v-.78a1,1,0,0,0-2,0v.78L55,46.8a1,1,0,0,0-1.41,1.41l.55.55h-.78a1,1,0,0,0,0,2h.78l-.55.55A1,1,0,1,0,55,52.73l.55-.55V53a1,1,0,0,0,2,0v-.78l.55.55a1,1,0,0,0,1.41-1.41L59,50.76h.78A1,1,0,0,0,60.77,49.76Z"/><path class="cls-4" d="M33.5,58.27a1,1,0,0,0-1-1h-.78l.55-.55a1,1,0,0,0-1.41-1.41l-.55.55v-.78a1,1,0,0,0-2,0v.78l-.55-.55a1,1,0,0,0-1.41,1.41l.55.55h-.78a1,1,0,0,0,0,2h.78l-.55.55a1,1,0,1,0,1.41,1.41l.55-.55v.78a1,1,0,0,0,2,0v-.78l.55.55a1,1,0,0,0,1.41-1.41l-.55-.55h.78A1,1,0,0,0,33.5,58.27Z"/><path class="cls-4" d="M51.68,58.27a1,1,0,0,0-1-1H49.9l.55-.55A1,1,0,0,0,49,55.31l-.55.55v-.78a1,1,0,0,0-2,0v.78l-.55-.55a1,1,0,0,0-1.41,1.41l.55.55H44.3a1,1,0,0,0,0,2h.78l-.55.55a1,1,0,1,0,1.41,1.41l.55-.55v.78a1,1,0,0,0,2,0v-.78l.55.55a1,1,0,0,0,1.41-1.41l-.55-.55h.78A1,1,0,0,0,51.68,58.27Z"/></svg>