<?xml version="1.0" ?><svg data-name="Layer 1" id="Layer_1" viewBox="0 0 64 64" xmlns="http://www.w3.org/2000/svg"><defs><style>.cls-1{fill:#6e9eff;}.cls-2{fill:#ff5939;}.cls-3{fill:#fedb41;}.cls-4{fill:#002849;}</style></defs><title/><path class="cls-1" d="M38.44,7.53a8.24,8.24,0,0,0-1.43.7A9,9,0,0,1,38.44,7.53Z"/><path class="cls-2" d="M32.43,30.11a7.75,7.75,0,1,1,0-15.5h.33A8.51,8.51,0,0,1,33,13.46c-.21,0-.43,0-.65,0A21.08,21.08,0,0,0,11.27,34.52,20.83,20.83,0,0,0,14.06,45H50.65A21,21,0,0,0,53,30.11Z"/><path class="cls-3" d="M56.82,18.18V18a4.42,4.42,0,0,0-3.61-4.36,4.57,4.57,0,0,0-.83-.08,4.48,4.48,0,0,0-1,.12,3.19,3.19,0,0,0-.44.13l-.09,0a2.59,2.59,0,0,0-.38.17h0a9,9,0,0,0-8.76-7.07,6.35,6.35,0,0,0-.76,0h-.16c-.24,0-.48.06-.71.1h0l-.77.19c-.26.07-.52.16-.76.25a9,9,0,0,0-1.43.7A8.24,8.24,0,0,0,35.94,9l-.3.25-.34.33L35,9.85c-.11.12-.21.23-.31.36l-.18.22c-.09.11-.17.22-.25.34a4.62,4.62,0,0,0-.35.55,3.36,3.36,0,0,0-.19.32l-.07.14a3.43,3.43,0,0,0-.21.43,6.52,6.52,0,0,0-.27.66c0,.12-.09.24-.12.37a1.42,1.42,0,0,0-.07.22,8.51,8.51,0,0,0-.25,1.16h-.33a7.75,7.75,0,1,0,0,15.5H56.22a6,6,0,0,0,.6-11.93Z"/><path class="cls-4" d="M31.35,4.52V9.35a1,1,0,0,0,2,0V4.52a1,1,0,0,0-2,0Z"/><path class="cls-4" d="M62.31,33.48H57.48a1,1,0,0,0,0,2h4.83a1,1,0,0,0,0-2Z"/><path class="cls-4" d="M2.4,33.48a1,1,0,0,0,0,2H7.23a1,1,0,0,0,0-2Z"/><path class="cls-4" d="M10.46,12.59a1,1,0,0,0,0,1.41l3.42,3.42A1,1,0,0,0,15.3,16l-3.42-3.42A1,1,0,0,0,10.46,12.59Z"/><path class="cls-4" d="M14.06,46H53.57a1,1,0,0,0,0-2H52.3a21.93,21.93,0,0,0,1.87-12.87h2a7,7,0,0,0,1.56-13.79,5.42,5.42,0,0,0-4.39-4.68,5.7,5.7,0,0,0-.92-.09l-.09,0a4.78,4.78,0,0,0-1.24.15h-.07a9.9,9.9,0,0,0-.7-1.59,1,1,0,1,0-1.75,1,7.93,7.93,0,0,1,.61,1.48,5.46,5.46,0,0,0-1.52,7.22,1,1,0,0,0,.86.48,1,1,0,0,0,.52-.14,1,1,0,0,0,.34-1.37,3.46,3.46,0,0,1,1.43-4.83h0l.08,0a1.57,1.57,0,0,1,.24-.1h0l.07,0a2.41,2.41,0,0,1,.33-.1,3.63,3.63,0,0,1,.42-.06l.29,0a3.63,3.63,0,0,1,.75.06A3.42,3.42,0,0,1,55.82,18v.19a1,1,0,0,0,.9,1,5,5,0,0,1-.5,9.93H32.43a6.75,6.75,0,0,1-.74-13.46c0,.09,0,.17,0,.26,0,.26,0,.51,0,.76a1,1,0,0,0,1,.91h.09a1,1,0,0,0,.91-1.09c0-.19,0-.38,0-.58a8.24,8.24,0,0,1,.08-1.15,7.44,7.44,0,0,1,.22-1l0-.11a1.05,1.05,0,0,0,.06-.17,1.28,1.28,0,0,1,.05-.15l0-.12c.07-.19.14-.38.25-.61a2.58,2.58,0,0,1,.15-.31l.08-.16a2.33,2.33,0,0,1,.13-.22l.07-.11a4,4,0,0,1,.3-.46c.06-.09.12-.18.22-.3l.17-.2c.08-.11.16-.2.26-.3l.26-.27.23-.23.33-.27a7.07,7.07,0,0,1,.94-.66,8.19,8.19,0,0,1,1-.51l.27-.11c.21-.08.43-.15.66-.22h0L40,8.12l.15,0h.16L40.72,8l.16,0H41a5.33,5.33,0,0,1,.64,0,7.93,7.93,0,0,1,4.1,1.14,1,1,0,0,0,1-1.71,9.94,9.94,0,0,0-5.14-1.43,7.41,7.41,0,0,0-.82,0h-.23c-.23,0-.46.06-.68.09l-.12,0h0a7.57,7.57,0,0,0-.84.21c-.29.08-.58.18-.85.28l-.27.12a9.24,9.24,0,0,0-1.27.64l-.05,0h0a8.84,8.84,0,0,0-1.16.82L35,8.5l-.39.37-.28.29c-.13.14-.25.27-.35.4l-.18.22c-.11.13-.21.27-.29.39v0h0a5.74,5.74,0,0,0-.37.58c-.08.12-.15.24-.23.4l-.06.12a3.84,3.84,0,0,0-.22.45v.05h0c-.09.19-.17.39-.24.6A22.23,22.23,0,0,0,11.2,28.15a1,1,0,0,0,1.92.58A20.24,20.24,0,0,1,27.71,15l-.15.11q-.29.2-.57.42l-.22.18a8.82,8.82,0,0,0-.7.66l-.07.08c-.2.21-.38.44-.56.67l-.17.24q-.21.29-.39.6l-.14.25a8.7,8.7,0,0,0-.42.88l0,0A8.69,8.69,0,0,0,24,20c0,.1,0,.19-.07.29s-.11.48-.14.73,0,.2,0,.3a8.7,8.7,0,0,0,8.68,9.78H52.15A20,20,0,0,1,50.06,44H14.65a19.94,19.94,0,0,1-2.38-9.46,1,1,0,0,0-2,0A22,22,0,0,0,12.41,44H1.69a1,1,0,1,0,0,2Z"/><path class="cls-4" d="M62.31,44H59.4a1,1,0,0,0,0,2h2.92a1,1,0,0,0,0-2Z"/><path class="cls-4" d="M40.69,48.65H20.17a1,1,0,1,0,0,2H40.69a1,1,0,0,0,0-2Z"/><path class="cls-4" d="M15.5,50.65a1,1,0,1,0,0-2H7.87a1,1,0,0,0,0,2Z"/><path class="cls-4" d="M57.35,52.9H54.5a1,1,0,0,0,0,2h2.86a1,1,0,0,0,0-2Z"/><path class="cls-4" d="M51.4,53.9a1,1,0,0,0-1-1h-22a1,1,0,0,0,0,2h22A1,1,0,0,0,51.4,53.9Z"/><path class="cls-4" d="M39.36,58.48a1,1,0,0,0,0,2h1.86a1,1,0,0,0,0-2Z"/><path class="cls-4" d="M23.48,58.48a1,1,0,0,0,0,2H34.59a1,1,0,0,0,0-2Z"/><path class="cls-4" d="M34.37,19.19a1,1,0,1,0-1.82.82c.11.25.24.5.37.74a1,1,0,0,0,1.75-1C34.56,19.59,34.46,19.39,34.37,19.19Z"/></svg>