<?xml version="1.0" ?><svg data-name="Layer 1" id="Layer_1" viewBox="0 0 64 64" xmlns="http://www.w3.org/2000/svg"><defs><style>.cls-1{fill:#b13fff;}.cls-2{fill:#002849;}</style></defs><title/><circle class="cls-1" cx="7.25" cy="6.69" r="4.69"/><path class="cls-2" d="M60.72,11.49a1,1,0,0,0,1.41-1.41A31.09,31.09,0,0,0,55.49,5a1,1,0,0,0-1,1.74A29.08,29.08,0,0,1,60.72,11.49Z"/><path class="cls-2" d="M11.22,32a29,29,0,0,1,38-27.58h0l.65.22a1,1,0,0,0,.33.06,1,1,0,0,0,.33-1.94l-.7-.24h0A31,31,0,0,0,9.22,32a30.67,30.67,0,0,0,3.33,14,1,1,0,1,0,1.78-.9A28.69,28.69,0,0,1,11.22,32Z"/><path class="cls-2" d="M60.72,52.51A29,29,0,0,1,18.2,50.88a1,1,0,0,0-1.52,1.3,31,31,0,0,0,45.45,1.74,1,1,0,0,0-1.41-1.41Z"/><path class="cls-2" d="M12.94,6.69A5.69,5.69,0,0,0,4.19,1.9,1,1,0,1,0,5.27,3.58,3.68,3.68,0,1,1,3.93,5.1a1,1,0,1,0-1.8-.86,5.63,5.63,0,0,0-.55,2.45,5.69,5.69,0,1,0,11.37,0Z"/></svg>