<?xml version="1.0" ?><svg data-name="Layer 1" id="Layer_1" viewBox="0 0 64 64" xmlns="http://www.w3.org/2000/svg"><defs><style>.cls-1{fill:#b13fff;}.cls-2{fill:#002849;}</style></defs><title/><circle class="cls-1" cx="15.16" cy="6.3" r="4.3"/><path class="cls-2" d="M24.87,5.17V62a1,1,0,0,0,2,0V5.17a1,1,0,1,0-2,0Z"/><path class="cls-2" d="M53.14,1H25.87a1,1,0,0,0,0,2H53.14a1,1,0,0,0,0-2Z"/><path class="cls-2" d="M53.14,28.27h-24a1,1,0,0,0,0,2h24a1,1,0,0,0,0-2Z"/><path class="cls-2" d="M11.56,3.75a1,1,0,0,0-1.3.55,5.29,5.29,0,1,0,3.28-3,1,1,0,1,0,.62,1.9A3.3,3.3,0,1,1,11.86,6.3a3.27,3.27,0,0,1,.24-1.24A1,1,0,0,0,11.56,3.75Z"/></svg>